#!OML:ASF F:\VICON\USERDATA\INSTALL\rory3\rory3.ASF
:FULLY-SPECIFIED
:DEGREES
458
root -0.0974243 16.6379 -1.76821 -158.861 -2.16617 182.465
lowerback -1.14978 -1.21918 -3.75445
upperback -0.42255 -1.59739 1.56042
thorax 0.357777 -0.803279 3.68614
lowerneck -11.99 -3.42274 2.1021
upperneck 40.0512 -0.648948 0.545893
head 16.3448 1.70491 0.216927
rclavicle 8.94531e-016 8.34896e-015
rhumerus -40.0237 -8.78884 -75.6987
rradius 20.775
rwrist -8.33774
rhand -1.79463 14.8369
rfingers 7.12502
rthumb 23.8704 -13.6997
lclavicle 8.94531e-016 8.34896e-015
lhumerus -38.7825 7.04741 70.4821
lradius 37.944
lwrist -5.6088
lhand -20.2557 12.7818
lfingers 7.12502
lthumb 6.09296 42.6742
rfemur -56.9614 14.6712 15.0392
rtibia 42.3642
rfoot -7.63435 -19.8388
rtoes 1.9063
lfemur -31.9448 -3.1472 -28.0275
ltibia 37.2885
lfoot -43.2306 26.4349
ltoes 1.06188
459
root -0.0959897 16.6366 -1.71475 -158.574 -1.94341 182.619
lowerback -1.07931 -1.1523 -3.68053
upperback -0.543459 -1.51442 1.58927
thorax 0.185259 -0.756795 3.67897
lowerneck -12.0346 -3.35554 2.29483
upperneck 40.0736 -0.472157 0.226876
head 16.3647 1.76293 0.0714739
rclavicle 6.95746e-015 -1.23246e-014
rhumerus -40.0225 -8.79127 -75.571
rradius 20.7803
rwrist -8.70947
rhand -1.88554 14.4841
rfingers 7.12502
rthumb 23.7832 -14.064
lclavicle 6.95746e-015 -1.23246e-014
lhumerus -38.7035 7.30995 70.1412
lradius 37.8893
lwrist -4.20471
lhand -19.9113 13.5589
lfingers 7.12502
lthumb 6.42544 43.4414
rfemur -56.9525 14.5642 14.5451
rtibia 42.3536
rfoot -10.3733 -20.6681
rtoes 10.5859
lfemur -32.5782 -3.22001 -27.8485
ltibia 37.4622
lfoot -43.391 26.4834
ltoes 1.27187
460
root -0.100676 16.6363 -1.67289 -158.309 -1.83556 182.598
lowerback -1.17363 -1.14893 -3.65685
upperback -0.613802 -1.50867 1.56934
thorax 0.164184 -0.752797 3.644
lowerneck -12.0324 -3.28682 2.41873
upperneck 40.0879 -0.289347 -0.0289401
head 16.3713 1.82295 -0.0327106
rclavicle 3.67752e-015 -4.37326e-015
rhumerus -40.0551 -8.68816 -75.508
rradius 20.8737
rwrist -9.26013
rhand -1.967 13.8375
rfingers 7.12502
rthumb 23.705 -14.7207
lclavicle 3.67752e-015 -4.37326e-015
lhumerus -38.6203 7.58665 69.809
lradius 37.925
lwrist -2.86275
lhand -19.3539 14.5306
lfingers 7.12502
lthumb 6.96354 44.396
rfemur -56.8202 14.3618 13.831
rtibia 42.3997
rfoot -13.5837 -21.7351
rtoes 18.9079
lfemur -33.1098 -3.30089 -27.8655
ltibia 37.624
lfoot -43.6904 26.1578
ltoes 1.47514
461
root -0.103067 16.6319 -1.63922 -158.211 -1.76553 182.413
lowerback -1.15291 -1.14673 -3.76563
upperback -0.685932 -1.50587 1.48874
thorax 0.07876 -0.748176 3.62353
lowerneck -11.8861 -3.30783 2.32776
upperneck 40.1484 -0.234737 -0.0400695
head 16.3689 1.84337 -0.00842189
rclavicle -5.36719e-015 5.56597e-015
rhumerus -40.295 -8.69042 -75.3872
rradius 21.131
rwrist -9.81739
rhand -2.08687 13.5061
rfingers 7.12502
rthumb 23.5901 -15.0669
lclavicle -5.36719e-015 5.56597e-015
lhumerus -38.6341 7.74974 69.5098
lradius 37.8835
lwrist -1.66411
lhand -19.0506 15.2844
lfingers 7.12502
lthumb 7.25631 45.14
rfemur -56.4247 14.2105 12.9922
rtibia 42.4839
rfoot -16.0181 -23.3124
rtoes 21.3605
lfemur -33.4118 -3.36203 -28.0689
ltibia 37.769
lfoot -43.5908 26.3106
ltoes 1.29255
462
root -0.103129 16.6179 -1.59479 -157.808 -1.32632 182.548
lowerback -1.43322 -0.989697 -3.74511
upperback -0.820251 -1.29185 1.47369
thorax 0.0775541 -0.640432 3.59629
lowerneck -11.7549 -3.3854 2.10032
upperneck 40.1926 -0.328841 0.160368
head 16.3621 1.8065 0.107734
rclavicle -7.95139e-016 1.63003e-014
rhumerus -40.4473 -8.83266 -75.1927
rradius 21.222
rwrist -10.0878
rhand -2.34596 13.8063
rfingers 7.12502
rthumb 23.3415 -14.7985
lclavicle -7.95139e-016 1.63003e-014
lhumerus -38.5882 7.92167 69.2075
lradius 37.8221
lwrist -0.405234
lhand -18.7444 15.8034
lfingers 7.12502
lthumb 7.55182 45.6486
rfemur -56.3997 13.8531 12.666
rtibia 42.5288
rfoot -17.5866 -24.6888
rtoes 22.6398
lfemur -34.1747 -3.30619 -28.0072
ltibia 37.9609
lfoot -43.5798 26.7072
ltoes 1.17512
463
root -0.107416 16.6107 -1.55111 -157.582 -0.987354 182.566
lowerback -1.6151 -0.911437 -3.82175
upperback -0.790779 -1.18005 1.48628
thorax 0.201401 -0.587638 3.65132
lowerneck -11.8256 -3.36175 1.84748
upperneck 40.1278 -0.344823 0.369594
head 16.3494 1.77613 0.238418
rclavicle -3.27995e-015 1.90833e-014
rhumerus -40.2168 -8.98573 -74.9448
rradius 20.9206
rwrist -9.97305
rhand -2.84512 14.3051
rfingers 7.12502
rthumb 22.8626 -14.3597
lclavicle -3.27995e-015 1.90833e-014
lhumerus -38.3744 8.33004 68.9506
lradius 37.6777
lwrist 0.742453
lhand -18.5742 16.095
lfingers 7.12502
lthumb 7.71615 45.9343
rfemur -56.0465 13.5037 12.2098
rtibia 42.5814
rfoot -18.9121 -26.1239
rtoes 22.8677
lfemur -34.6808 -3.19938 -28.074
ltibia 38.1376
lfoot -43.8736 26.4217
ltoes 2.74453
464
root -0.115982 16.6135 -1.51733 -157.497 -0.913859 182.788
lowerback -1.84438 -0.891269 -3.63125
upperback -0.620132 -1.14711 1.62017
thorax 0.501413 -0.58057 3.67763
lowerneck -12.1072 -3.2869 1.67074
upperneck 40.0782 -0.271736 0.417112
head 16.3965 1.76338 0.298021
rclavicle -8.24956e-015 9.14409e-015
rhumerus -39.7093 -9.33775 -74.5142
rradius 20.4515
rwrist -9.41424
rhand -3.26826 14.4192
rfingers 7.12502
rthumb 22.4565 -14.2952
lclavicle -8.24956e-015 9.14409e-015
lhumerus -38.1337 8.86725 68.8104
lradius 37.7951
lwrist 1.65503
lhand -18.3497 16.6645
lfingers 7.12502
lthumb 7.93284 46.4956
rfemur -55.4101 13.4423 11.8143
rtibia 42.6244
rfoot -21.8217 -27.2493
rtoes 26.2028
lfemur -34.9975 -3.07538 -27.9046
ltibia 38.3014
lfoot -43.8469 26.5479
ltoes 3.01619
465
root -0.119061 16.6172 -1.48772 -157.396 -0.872465 182.933
lowerback -2.19555 -0.860783 -3.52845
upperback -0.419862 -1.09584 1.69696
thorax 0.899069 -0.566321 3.69345
lowerneck -12.4985 -3.24492 1.68703
upperneck 40.1239 -0.229394 0.316189
head 16.5189 1.75324 0.256232
rclavicle 1.59028e-014 3.97569e-015
rhumerus -39.1987 -9.78396 -74.158
rradius 19.8377
rwrist -8.8755
rhand -3.89882 15.1491
rfingers 7.12502
rthumb 21.8511 -13.6371
lclavicle 1.59028e-014 3.97569e-015
lhumerus -37.8454 9.23726 68.6719
lradius 37.999
lwrist 2.60396
lhand -18.157 17.3227
lfingers 7.12502
lthumb 8.1188 47.1468
rfemur -54.9435 13.7881 11.0397
rtibia 42.7165
rfoot -25.3517 -28.7687
rtoes 29.7116
lfemur -35.2562 -3.03632 -27.7544
ltibia 38.3533
lfoot -43.8936 26.4255
ltoes 2.56974
466
root -0.121449 16.6196 -1.45855 -157.093 -0.712404 182.79
lowerback -2.59631 -0.809752 -3.70072
upperback -0.449324 -1.01101 1.64911
thorax 1.0878 -0.528267 3.73907
lowerneck -12.6485 -3.26744 1.75028
upperneck 40.2532 -0.220195 0.219869
head 16.6256 1.7607 0.208647
rclavicle -1.14301e-014 1.07344e-014
rhumerus -39.1541 -10.1927 -73.8239
rradius 19.6768
rwrist -8.38973
rhand -4.15718 15.6054
rfingers 7.12502
rthumb 21.603 -13.2096
lclavicle -1.14301e-014 1.07344e-014
lhumerus -37.7388 9.4359 68.4585
lradius 37.9411
lwrist 3.76287
lhand -17.8675 17.4658
lfingers 7.12502
lthumb 8.39818 47.2789
rfemur -54.7052 13.9213 9.97619
rtibia 42.8157
rfoot -28.4316 -30.46
rtoes 31.7159
lfemur -35.6562 -2.81074 -27.992
ltibia 38.3537
lfoot -44.103 25.6646
ltoes 3.09955
467
root -0.127883 16.6172 -1.42916 -156.839 -0.324895 182.767
lowerback -2.73184 -0.709976 -3.7781
upperback -0.620079 -0.838897 1.61084
thorax 0.973602 -0.422392 3.74955
lowerneck -12.6155 -3.31116 1.82115
upperneck 40.458 -0.148452 0.0410075
head 16.7281 1.80086 0.138273
rclavicle 5.06901e-015 -8.54774e-015
rhumerus -39.3854 -10.0293 -73.7294
rradius 19.8418
rwrist -8.3124
rhand -4.48381 15.5048
rfingers 7.12502
rthumb 21.2893 -13.3459
lclavicle 5.06901e-015 -8.54774e-015
lhumerus -37.8538 9.79921 68.103
lradius 37.7786
lwrist 4.34484
lhand -17.5215 17.8536
lfingers 7.12502
lthumb 8.73214 47.653
rfemur -54.3292 13.8101 9.29763
rtibia 42.8627
rfoot -31.1998 -31.3347
rtoes 33.8525
lfemur -36.0563 -2.66591 -28.1284
ltibia 38.3705
lfoot -44.4663 25.2519
ltoes 5.0885
468
root -0.132945 16.6101 -1.40475 -156.761 -0.0197014 182.993
lowerback -2.77431 -0.590103 -3.59228
upperback -0.715463 -0.680118 1.61625
thorax 0.882558 -0.337443 3.65619
lowerneck -12.7835 -3.38293 1.86404
upperneck 40.8271 -0.161612 0.030937
head 16.9745 1.83219 0.13918
rclavicle -8.94531e-016 1.70955e-014
rhumerus -39.4426 -10.2243 -73.4727
rradius 19.5728
rwrist -7.77548
rhand -4.89426 15.9885
rfingers 7.12502
rthumb 20.895 -12.9061
lclavicle -8.94531e-016 1.70955e-014
lhumerus -37.9997 10.0584 67.7676
lradius 37.6277
lwrist 4.84107
lhand -17.5152 18.0253
lfingers 7.12502
lthumb 8.7382 47.8244
rfemur -53.6663 14.1147 8.78306
rtibia 42.8632
rfoot -34.9166 -31.556
rtoes 37.4436
lfemur -36.2961 -2.70691 -27.9154
ltibia 38.4122
lfoot -44.6957 25.4454
ltoes 6.00203
469
root -0.146551 16.6136 -1.38404 -156.666 -0.0571409 183.363
lowerback -2.90446 -0.51683 -3.0346
upperback -0.793645 -0.589587 1.69519
thorax 0.862526 -0.286987 3.42552
lowerneck -12.9731 -3.52259 1.68585
upperneck 41.1511 -0.310696 0.200636
head 17.2068 1.7926 0.235671
rclavicle -1.98785e-015 -8.34896e-015
rhumerus -39.4055 -10.4978 -73.1699
rradius 19.1111
rwrist -7.18465
rhand -5.42867 16.4433
rfingers 7.12502
rthumb 20.3815 -12.5071
lclavicle -1.98785e-015 -8.34896e-015
lhumerus -38.1194 10.2304 67.5397
lradius 37.2738
lwrist 5.3384
lhand -17.3928 17.6359
lfingers 7.12502
lthumb 8.85626 47.43
rfemur -52.8772 14.2826 8.49674
rtibia 42.8249
rfoot -38.6848 -31.8533
rtoes 40.0325
lfemur -36.5465 -2.76551 -27.5132
ltibia 38.4777
lfoot -44.5623 25.7573
ltoes 5.55134
470
root -0.156154 16.6141 -1.36614 -156.629 -0.00995044 183.297
lowerback -2.97758 -0.486254 -2.95351
upperback -0.882642 -0.546475 1.66008
thorax 0.807508 -0.261777 3.34492
lowerneck -12.851 -3.61267 1.52507
upperneck 41.244 -0.374285 0.280168
head 17.2296 1.76905 0.295408
rclavicle -2.5842e-015 -8.74653e-015
rhumerus -39.5173 -10.7073 -72.8938
rradius 18.8487
rwrist -6.37685
rhand -5.83343 16.7208
rfingers 7.12502
rthumb 19.9925 -12.2707
lclavicle -2.5842e-015 -8.74653e-015
lhumerus -38.425 10.4373 67.2935
lradius 37.3606
lwrist 5.77382
lhand -17.0582 17.9533
lfingers 7.12502
lthumb 9.17914 47.7335
rfemur -51.9642 14.2078 7.86788
rtibia 42.7701
rfoot -41.7706 -32.0772
rtoes 41.6426
lfemur -36.6908 -2.72107 -27.6464
ltibia 38.5623
lfoot -44.3165 26.1153
ltoes 4.21953
471
root -0.158336 16.608 -1.34918 -156.622 0.115238 183.049
lowerback -3.06462 -0.456232 -3.19303
upperback -1.00755 -0.494231 1.60292
thorax 0.725173 -0.231108 3.42302
lowerneck -12.4174 -3.69108 1.51017
upperneck 41.1713 -0.397468 0.196686
head 17.075 1.76137 0.256987
rclavicle 5.66536e-015 -9.93923e-016
rhumerus -39.8963 -10.9226 -72.5599
rradius 18.8575
rwrist -5.52124
rhand -6.26326 17.0672
rfingers 7.12502
rthumb 19.5793 -11.9669
lclavicle 5.66536e-015 -9.93923e-016
lhumerus -38.8276 10.3752 67.1759
lradius 37.5861
lwrist 6.24589
lhand -17.0716 18.2332
lfingers 7.12502
lthumb 9.1663 48.014
rfemur -50.9935 14.2622 7.00306
rtibia 42.6986
rfoot -44.9905 -31.8081
rtoes 43.4458
lfemur -36.7857 -2.69215 -27.9551
ltibia 38.6395
lfoot -44.2422 26.2327
ltoes 3.84727
